<svg width="23" height="23" viewBox="0 0 23 23" fill="none" xmlns="http://www.w3.org/2000/svg">
<path d="M18.4987 18.3598C17.2777 18.3598 16.2987 19.3388 16.2987 20.5598C16.2987 21.1432 16.5305 21.7028 16.943 22.1154C17.3556 22.528 17.9152 22.7598 18.4987 22.7598C19.0822 22.7598 19.6417 22.528 20.0543 22.1154C20.4669 21.7028 20.6987 21.1432 20.6987 20.5598C20.6987 19.9763 20.4669 19.4167 20.0543 19.0041C19.6417 18.5916 19.0822 18.3598 18.4987 18.3598ZM0.898682 0.759766V2.95977H3.09868L7.05868 11.3088L5.56268 14.0038C5.39768 14.3118 5.29868 14.6748 5.29868 15.0598C5.29868 15.6432 5.53047 16.2028 5.94305 16.6154C6.35563 17.028 6.91521 17.2598 7.49868 17.2598H20.6987V15.0598H7.96068C7.88775 15.0598 7.8178 15.0308 7.76623 14.9792C7.71465 14.9276 7.68568 14.8577 7.68568 14.7848C7.68568 14.7298 7.69668 14.6858 7.71868 14.6528L8.70868 12.8598H16.9037C17.7287 12.8598 18.4547 12.3978 18.8287 11.7268L22.7667 4.60977C22.8437 4.43377 22.8987 4.24677 22.8987 4.05977C22.8987 3.76803 22.7828 3.48824 22.5765 3.28195C22.3702 3.07566 22.0904 2.95977 21.7987 2.95977H5.52968L4.49568 0.759766M7.49868 18.3598C6.27768 18.3598 5.29868 19.3388 5.29868 20.5598C5.29868 21.1432 5.53047 21.7028 5.94305 22.1154C6.35563 22.528 6.91521 22.7598 7.49868 22.7598C8.08216 22.7598 8.64174 22.528 9.05432 22.1154C9.4669 21.7028 9.69868 21.1432 9.69868 20.5598C9.69868 19.9763 9.4669 19.4167 9.05432 19.0041C8.64174 18.5916 8.08216 18.3598 7.49868 18.3598Z" fill="black"/>
</svg>