<svg width="23" height="22" viewBox="0 0 23 22" fill="none" xmlns="http://www.w3.org/2000/svg">
<path d="M11.4996 11C12.7428 11 13.958 10.6774 14.9917 10.0731C16.0253 9.46874 16.8309 8.60975 17.3067 7.60476C17.7824 6.59977 17.9069 5.4939 17.6644 4.427C17.4218 3.36011 16.8232 2.3801 15.9442 1.61091C15.0651 0.841726 13.9451 0.317902 12.7259 0.105683C11.5066 -0.106535 10.2428 0.00238306 9.09427 0.418665C7.94575 0.834947 6.96409 1.5399 6.27343 2.44437C5.58277 3.34884 5.21413 4.4122 5.21413 5.5C5.21413 6.95869 5.87635 8.35764 7.05511 9.38909C8.23387 10.4205 9.83261 11 11.4996 11ZM16.2041 12.4009L13.8571 20.625L12.2857 14.7814L13.8571 12.375H9.14294L10.7143 14.7814L9.14294 20.625L6.79512 12.4009C5.1022 12.4668 3.50341 13.101 2.33104 14.1717C1.15867 15.2424 0.50289 16.6672 0.5 18.15L0.5 19.9378C0.500196 20.4848 0.748654 21.0093 1.19074 21.396C1.63282 21.7828 2.23233 22 2.85743 22H20.1426C20.7677 22 21.3672 21.7828 21.8093 21.396C22.2513 21.0093 22.4998 20.4848 22.5 19.9378V18.15C22.4971 16.6672 21.8413 15.2424 20.669 14.1717C19.4966 13.101 17.8971 12.4668 16.2041 12.4009Z" fill="black"/>
</svg>
