<svg width="28" height="28" viewBox="0 0 28 28" fill="none" xmlns="http://www.w3.org/2000/svg">
<path d="M25.4 27.2596L15.95 17.8096C15.2 18.4096 14.3375 18.8846 13.3625 19.2346C12.3875 19.5846 11.35 19.7596 10.25 19.7596C7.525 19.7596 5.219 18.8156 3.332 16.9276C1.445 15.0396 0.501001 12.7336 0.500001 10.0096C0.499001 7.28564 1.443 4.97964 3.332 3.09164C5.221 1.20364 7.527 0.259644 10.25 0.259644C12.973 0.259644 15.2795 1.20364 17.1695 3.09164C19.0595 4.97964 20.003 7.28564 20 10.0096C20 11.1096 19.825 12.1471 19.475 13.1221C19.125 14.0971 18.65 14.9596 18.05 15.7096L27.5 25.1596L25.4 27.2596ZM10.25 16.7596C12.125 16.7596 13.719 16.1036 15.032 14.7916C16.345 13.4796 17.001 11.8856 17 10.0096C16.999 8.13364 16.343 6.54014 15.032 5.22914C13.721 3.91814 12.127 3.26164 10.25 3.25964C8.373 3.25764 6.7795 3.91414 5.4695 5.22914C4.1595 6.54414 3.503 8.13764 3.5 10.0096C3.497 11.8816 4.1535 13.4756 5.4695 14.7916C6.7855 16.1076 8.379 16.7636 10.25 16.7596Z" fill="black"/>
</svg>
