<svg width="13" height="13" viewBox="0 0 13 13" fill="none" xmlns="http://www.w3.org/2000/svg">
<mask id="path-1-inside-1_98_1016" fill="white">
<path d="M12.5 7.23007H7.35714V12.3729H5.64286V7.23007H0.5V5.51578H5.64286V0.372925H7.35714V5.51578H12.5V7.23007Z"/>
</mask>
<path d="M12.5 7.23007H7.35714V12.3729H5.64286V7.23007H0.5V5.51578H5.64286V0.372925H7.35714V5.51578H12.5V7.23007Z" fill="black"/>
<path d="M12.5 7.23007V11.2301H16.5V7.23007H12.5ZM7.35714 7.23007V3.23007H3.35714V7.23007H7.35714ZM7.35714 12.3729V16.3729H11.3571V12.3729H7.35714ZM5.64286 12.3729H1.64286V16.3729H5.64286V12.3729ZM5.64286 7.23007H9.64286V3.23007H5.64286V7.23007ZM0.5 7.23007H-3.5V11.2301H0.5V7.23007ZM0.5 5.51578V1.51578H-3.5V5.51578H0.5ZM5.64286 5.51578V9.51578H9.64286V5.51578H5.64286ZM5.64286 0.372925V-3.62708H1.64286V0.372925H5.64286ZM7.35714 0.372925H11.3571V-3.62708H7.35714V0.372925ZM7.35714 5.51578H3.35714V9.51578H7.35714V5.51578ZM12.5 5.51578H16.5V1.51578H12.5V5.51578ZM12.5 3.23007H7.35714V11.2301H12.5V3.23007ZM3.35714 7.23007V12.3729H11.3571V7.23007H3.35714ZM7.35714 8.37292H5.64286V16.3729H7.35714V8.37292ZM9.64286 12.3729V7.23007H1.64286V12.3729H9.64286ZM5.64286 3.23007H0.5V11.2301H5.64286V3.23007ZM4.5 7.23007V5.51578H-3.5V7.23007H4.5ZM0.5 9.51578H5.64286V1.51578H0.5V9.51578ZM9.64286 5.51578V0.372925H1.64286V5.51578H9.64286ZM5.64286 4.37292H7.35714V-3.62708H5.64286V4.37292ZM3.35714 0.372925V5.51578H11.3571V0.372925H3.35714ZM7.35714 9.51578H12.5V1.51578H7.35714V9.51578ZM8.5 5.51578V7.23007H16.5V5.51578H8.5Z" fill="black" mask="url(#path-1-inside-1_98_1016)"/>
</svg>
