<svg width="13" height="3" viewBox="0 0 13 3" fill="none" xmlns="http://www.w3.org/2000/svg">
<mask id="path-1-inside-1_98_1012" fill="white">
<path d="M12.5 2.37292H0.5V0.372925H12.5V2.37292Z"/>
</mask>
<path d="M12.5 2.37292H0.5V0.372925H12.5V2.37292Z" fill="#0C0B0B"/>
<path d="M12.5 2.37292V5.37292H15.5V2.37292H12.5ZM0.5 2.37292H-2.5V5.37292H0.5V2.37292ZM0.5 0.372925V-2.62708H-2.5V0.372925H0.5ZM12.5 0.372925H15.5V-2.62708H12.5V0.372925ZM12.5 -0.627075H0.5V5.37292H12.5V-0.627075ZM3.5 2.37292V0.372925H-2.5V2.37292H3.5ZM0.5 3.37292H12.5V-2.62708H0.5V3.37292ZM9.5 0.372925V2.37292H15.5V0.372925H9.5Z" fill="black" mask="url(#path-1-inside-1_98_1012)"/>
</svg>
